<svg width="260" height="260" viewBox="0 0 260 260" xmlns="http://www.w3.org/2000/svg">
  <!-- Outer border -->
  <circle cx="130" cy="130" r="128" fill="none" stroke="#82d982" stroke-width="4"/>
  
  <!-- Blue background -->
  <circle cx="130" cy="130" r="124" fill="#4A90E2"/>
  
  <!-- Inner black circle -->
  <circle cx="130" cy="130" r="110" fill="#1A202C"/>
  
  <!-- Player silhouette -->
  <g transform="translate(80, 60)">
    <path d="M40 20 C45 15, 55 15, 60 20 C65 25, 65 35, 60 40 C55 45, 45 45, 40 40 C35 35, 35 25, 40 20" fill="#4A90E2"/>
    <rect x="35" y="40" width="30" height="50" rx="5" fill="#4A90E2"/>
    <rect x="25" y="45" width="15" height="35" rx="3" fill="#4A90E2"/>
    <rect x="60" y="45" width="15" height="35" rx="3" fill="#4A90E2"/>
    <rect x="30" y="90" width="12" height="40" rx="3" fill="#4A90E2"/>
    <rect x="58" y="90" width="12" height="40" rx="3" fill="#4A90E2"/>
    <circle cx="75" cy="120" r="8" fill="white"/>
    <circle cx="75" cy="120" r="6" fill="black"/>
  </g>
  
  <!-- Statistics bars -->
  <g transform="translate(140, 90)">
    <rect x="0" y="20" width="15" height="30" fill="#82d982"/>
    <rect x="20" y="10" width="15" height="40" fill="#82d982"/>
    <rect x="40" y="5" width="15" height="45" fill="#82d982"/>
    <rect x="60" y="0" width="15" height="50" fill="#82d982"/>
  </g>
  
  <!-- Arrow -->
  <path d="M190 70 L210 50 L205 55 L220 40 L215 45 L230 30" stroke="#82d982" stroke-width="3" fill="none"/>
  <circle cx="235" cy="25" r="4" fill="#FFA500"/>
  
  <!-- Text banner -->
  <rect x="50" y="180" width="160" height="30" fill="#FFA500" rx="5"/>
  <text x="130" y="200" text-anchor="middle" font-family="Arial, sans-serif" font-size="20" font-weight="bold" fill="black">Stakick</text>
</svg>